<svg xmlns="http://www.w3.org/2000/svg" viewBox="0 0 860 480" font-family="system-ui, -apple-system, sans-serif">
  <defs>
    <filter id="s">
      <feDropShadow dx="0" dy="2" stdDeviation="4" flood-color="#00000015"/>
    </filter>
  </defs>
  <rect width="860" height="480" rx="16" fill="#f8fafc"/>
  <text x="430" y="28" text-anchor="middle" font-size="13" font-weight="600" fill="#64748b">生成的 PPT 预览示例</text>
  <!-- Cover slide -->
  <g filter="url(#s)">
    <rect x="25" y="45" width="260" height="195" rx="8" fill="#1e3a5f"/>
    <rect x="25" y="45" width="260" height="195" rx="8" fill="url(#covergrad)"/>
    <rect x="45" y="80" width="220" height="3" rx="1.5" fill="#3b82f6"/>
    <text x="155" y="115" text-anchor="middle" font-size="16" font-weight="700" fill="#fff">AI 数据分析平台</text>
    <text x="155" y="138" text-anchor="middle" font-size="10" fill="#93bbfd">让数据说话 · 让决策更准</text>
    <text x="155" y="220" text-anchor="middle" font-size="9" fill="#5a78a8">智数科技 · 张三</text>
  </g>
  <text x="155" y="258" text-anchor="middle" font-size="10" fill="#94a3b8">封面 Cover</text>
  <!-- Two column slide -->
  <g filter="url(#s)">
    <rect x="300" y="45" width="260" height="195" rx="8" fill="#fff"/>
    <rect x="300" y="45" width="260" height="38" rx="8" fill="#f8fafc"/>
    <rect x="300" y="67" width="260" height="6" fill="#f8fafc"/>
    <text x="430" y="70" text-anchor="middle" font-size="11" font-weight="600" fill="#1e293b">核心功能对比</text>
    <line x1="430" y1="83" x2="430" y2="240" stroke="#e2e8f0" stroke-width="1"/>
    <text x="360" y="105" text-anchor="middle" font-size="10" font-weight="600" fill="#ef4444">传统方案</text>
    <text x="500" y="105" text-anchor="middle" font-size="10" font-weight="600" fill="#22c55e">AI 智能平台</text>
    <text x="340" y="125" font-size="9" fill="#64748b">✗ 人工数据导出</text>
    <text x="480" y="125" font-size="9" fill="#64748b">✓ 自动数据接入</text>
    <text x="340" y="142" font-size="9" fill="#64748b">✗ Excel 手工分析</text>
    <text x="480" y="142" font-size="9" fill="#64748b">✓ AI 智能分析</text>
    <text x="340" y="159" font-size="9" fill="#64748b">✗ 静态报表</text>
    <text x="480" y="159" font-size="9" fill="#64748b">✓ 实时仪表盘</text>
    <text x="340" y="176" font-size="9" fill="#64748b">✗ 响应需 3-5 天</text>
    <text x="480" y="176" font-size="9" fill="#64748b">✓ 分钟级响应</text>
    <text x="340" y="193" font-size="9" fill="#64748b">✗ 人力成本高</text>
    <text x="480" y="193" font-size="9" fill="#64748b">✓ 成本降低 80%</text>
  </g>
  <text x="430" y="258" text-anchor="middle" font-size="10" fill="#94a3b8">两栏对比 Two Column</text>
  <!-- Data chart slide -->
  <g filter="url(#s)">
    <rect x="575" y="45" width="260" height="195" rx="8" fill="#fff"/>
    <rect x="575" y="45" width="260" height="38" rx="8" fill="#f8fafc"/>
    <rect x="575" y="67" width="260" height="6" fill="#f8fafc"/>
    <text x="705" y="70" text-anchor="middle" font-size="11" font-weight="600" fill="#1e293b">效率提升数据</text>
    <!-- Bar chart -->
    <rect x="610" y="205" width="40" height="25" rx="3" fill="#ef4444"/>
    <rect x="670" y="173" width="40" height="57" rx="3" fill="#f59e0b"/>
    <rect x="730" y="120" width="40" height="110" rx="3" fill="#22c55e"/>
    <text x="630" y="235" text-anchor="middle" font-size="8" fill="#94a3b8">传统</text>
    <text x="690" y="235" text-anchor="middle" font-size="8" fill="#94a3b8">竞品</text>
    <text x="750" y="235" text-anchor="middle" font-size="8" fill="#94a3b8">智数</text>
    <text x="630" y="215" text-anchor="middle" font-size="9" font-weight="600" fill="#ef4444">120h</text>
    <text x="690" y="183" text-anchor="middle" font-size="9" font-weight="600" fill="#f59e0b">48h</text>
    <text x="750" y="130" text-anchor="middle" font-size="9" font-weight="600" fill="#22c55e">5h</text>
  </g>
  <text x="705" y="258" text-anchor="middle" font-size="10" fill="#94a3b8">数据图表 Data Chart</text>
  <!-- More slides row 2 -->
  <!-- Section divider -->
  <g filter="url(#s)">
    <rect x="25" y="280" width="260" height="185" rx="8" fill="#1e3a5f"/>
    <text x="155" y="340" text-anchor="middle" font-size="24" font-weight="700" fill="#fff" opacity="0.15">01</text>
    <text x="155" y="360" text-anchor="middle" font-size="18" font-weight="700" fill="#fff">行业洞察</text>
    <line x1="90" y1="375" x2="220" y2="375" stroke="#3b82f6" stroke-width="2"/>
  </g>
  <text x="155" y="483" text-anchor="middle" font-size="10" fill="#94a3b8">章节分隔 Section Divider</text>
  <!-- Data table slide -->
  <g filter="url(#s)">
    <rect x="300" y="280" width="260" height="185" rx="8" fill="#fff"/>
    <rect x="300" y="280" width="260" height="35" rx="8" fill="#f8fafc"/>
    <rect x="300" y="300" width="260" height="5" fill="#f8fafc"/>
    <text x="430" y="303" text-anchor="middle" font-size="11" font-weight="600" fill="#1e293b">竞品对比分析</text>
    <!-- Table rows -->
    <rect x="312" y="325" width="236" height="20" rx="3" fill="#f1f5f9"/>
    <text x="320" y="339" font-size="8" font-weight="600" fill="#475569">功能</text>
    <text x="387" y="339" font-size="8" font-weight="600" fill="#475569">智数</text>
    <text x="437" y="339" font-size="8" font-weight="600" fill="#475569">竞A</text>
    <text x="487" y="339" font-size="8" font-weight="600" fill="#475569">竞B</text>
    <text x="320" y="354" font-size="8" fill="#64748b">数据接入</text>
    <text x="387" y="354" font-size="8" fill="#22c55e">✓</text>
    <text x="437" y="354" font-size="8" fill="#22c55e">✓</text>
    <text x="487" y="354" font-size="8" fill="#ef4444">✗</text>
    <text x="320" y="369" font-size="8" fill="#64748b">AI 分析</text>
    <text x="387" y="369" font-size="8" fill="#22c55e">✓</text>
    <text x="437" y="369" font-size="8" fill="#ef4444">✗</text>
    <text x="487" y="369" font-size="8" fill="#ef4444">✗</text>
    <text x="320" y="384" font-size="8" fill="#64748b">仪表盘</text>
    <text x="387" y="384" font-size="8" fill="#22c55e">✓</text>
    <text x="437" y="384" font-size="8" fill="#22c55e">✓</text>
    <text x="487" y="384" font-size="8" fill="#22c55e">✓</text>
    <text x="320" y="399" font-size="8" fill="#64748b">报表</text>
    <text x="387" y="399" font-size="8" fill="#22c55e">✓</text>
    <text x="437" y="399" font-size="8" fill="#ef4444">✗</text>
    <text x="487" y="399" font-size="8" fill="#ef4444">✗</text>
    <text x="320" y="414" font-size="8" fill="#64748b">开放接口</text>
    <text x="387" y="414" font-size="8" fill="#22c55e">✓</text>
    <text x="437" y="414" font-size="8" fill="#22c55e">✓</text>
    <text x="487" y="414" font-size="8" fill="#ef4444">✗</text>
    <text x="320" y="429" font-size="8" fill="#64748b">私有化</text>
    <text x="387" y="429" font-size="8" fill="#22c55e">✓</text>
    <text x="437" y="429" font-size="8" fill="#ef4444">✗</text>
    <text x="487" y="429" font-size="8" fill="#ef4444">✗</text>
  </g>
  <text x="430" y="483" text-anchor="middle" font-size="10" fill="#94a3b8">数据表格 Data Table</text>
  <!-- Timeline slide -->
  <g filter="url(#s)">
    <rect x="575" y="280" width="260" height="185" rx="8" fill="#fff"/>
    <rect x="575" y="280" width="260" height="35" rx="8" fill="#f8fafc"/>
    <rect x="575" y="300" width="260" height="5" fill="#f8fafc"/>
    <text x="705" y="303" text-anchor="middle" font-size="11" font-weight="600" fill="#1e293b">产品路线图</text>
    <!-- Timeline -->
    <line x1="610" y1="370" x2="800" y2="370" stroke="#3b82f6" stroke-width="2"/>
    <circle cx="625" cy="370" r="6" fill="#3b82f6"/>
    <circle cx="685" cy="370" r="6" fill="#3b82f6"/>
    <circle cx="745" cy="370" r="6" fill="#3b82f6"/>
    <circle cx="805" cy="370" r="6" fill="#3b82f6"/>
    <text x="625" y="340" text-anchor="middle" font-size="8" font-weight="600" fill="#3b82f6">Q1</text>
    <text x="685" y="340" text-anchor="middle" font-size="8" font-weight="600" fill="#3b82f6">Q2</text>
    <text x="745" y="340" text-anchor="middle" font-size="8" font-weight="600" fill="#3b82f6">Q3</text>
    <text x="805" y="340" text-anchor="middle" font-size="8" font-weight="600" fill="#3b82f6">Q4</text>
    <text x="625" y="395" text-anchor="middle" font-size="8" fill="#64748b">MVP</text>
    <text x="685" y="395" text-anchor="middle" font-size="8" fill="#64748b">AI 引擎</text>
    <text x="745" y="395" text-anchor="middle" font-size="8" fill="#64748b">企业版</text>
    <text x="805" y="395" text-anchor="middle" font-size="8" fill="#64748b">国际化</text>
  </g>
  <text x="705" y="483" text-anchor="middle" font-size="10" fill="#94a3b8">时间线 Timeline</text>
</svg>
